<svg width="40.000000" height="40.000000" viewBox="0 0 40 40" fill="none" xmlns="http://www.w3.org/2000/svg" xmlns:xlink="http://www.w3.org/1999/xlink">
	<desc>
			Created with Pixso.
	</desc>
	<defs>
		<clipPath id="clip6_5420">
			<rect rx="-0.500000" width="39.000000" height="39.000000" transform="translate(0.500000 0.500000)" fill="white" fill-opacity="0"/>
		</clipPath>
	</defs>
	<rect rx="-0.500000" width="39.000000" height="39.000000" transform="translate(0.500000 0.500000)" fill="#FFFFFF" fill-opacity="0"/>
	<g clip-path="url(#clip6_5420)">
		<path d="M28 22.65L28 28C28 28.53 27.78 29.03 27.41 29.41C27.03 29.78 26.53 30 26 30L12 30C11.46 30 10.96 29.78 10.58 29.41C10.21 29.03 10 28.53 10 28L10 14C10 13.46 10.21 12.96 10.58 12.58C10.96 12.21 11.46 12 12 12L17.34 12" stroke="#6C5CE7" stroke-opacity="1.000000" stroke-width="3.000000" stroke-linejoin="round" stroke-linecap="round"/>
		<path d="M30 14L20 24L16 24L16 20L26 10L30 14Z" stroke="#6C5CE7" stroke-opacity="1.000000" stroke-width="3.000000" stroke-linejoin="round"/>
	</g>
</svg>
