<svg width="88.000000" height="88.000000" viewBox="0 0 88 88" fill="none" xmlns="http://www.w3.org/2000/svg" xmlns:xlink="http://www.w3.org/1999/xlink">
	<desc>
			Created with Pixso.
	</desc>
	<defs>
		<filter id="filter_2_4741_dd" x="0.000000" y="0.000000" width="88.000000" height="88.000000" filterUnits="userSpaceOnUse" color-interpolation-filters="sRGB">
			<feFlood flood-opacity="0" result="BackgroundImageFix"/>
			<feColorMatrix in="SourceAlpha" type="matrix" values="0 0 0 0 0 0 0 0 0 0 0 0 0 0 0 0 0 0 127 0" result="hardAlpha"/>
			<feOffset dx="0" dy="4"/>
			<feGaussianBlur stdDeviation="5.33333"/>
			<feComposite in2="hardAlpha" operator="out" k2="-1" k3="1"/>
			<feColorMatrix type="matrix" values="0 0 0 0 0.14902 0 0 0 0 0.19608 0 0 0 0 0.21961 0 0 0 0.078 0"/>
			<feBlend mode="normal" in2="BackgroundImageFix" result="effect_dropShadow_1"/>
			<feColorMatrix in="SourceAlpha" type="matrix" values="0 0 0 0 0 0 0 0 0 0 0 0 0 0 0 0 0 0 127 0" result="hardAlpha"/>
			<feOffset dx="0" dy="4"/>
			<feGaussianBlur stdDeviation="2"/>
			<feComposite in2="hardAlpha" operator="out" k2="-1" k3="1"/>
			<feColorMatrix type="matrix" values="0 0 0 0 0.14902 0 0 0 0 0.19608 0 0 0 0 0.21961 0 0 0 0.16 0"/>
			<feBlend mode="normal" in2="effect_dropShadow_1" result="effect_dropShadow_2"/>
			<feBlend mode="normal" in="SourceGraphic" in2="effect_dropShadow_2" result="shape"/>
		</filter>
		<clipPath id="clip2_4741">
			<rect rx="-0.500000" width="55.000000" height="55.000000" transform="translate(16.500000 12.500000)" fill="white" fill-opacity="0"/>
		</clipPath>
	</defs>
	<g filter="url(#filter_2_4741_dd)">
		<rect rx="-0.500000" width="55.000000" height="55.000000" transform="translate(16.500000 12.500000)" fill="#FFFFFF" fill-opacity="0"/>
		<g clip-path="url(#clip2_4741)">
			<path d="M37 38.59L32.8 38.59C32.05 38.59 31.34 38.89 30.82 39.41C30.29 39.94 30 40.65 30 41.4L30 51.2C30 51.94 30.29 52.65 30.82 53.17C31.34 53.7 32.05 54 32.8 54L37 54L52.79 54C53.46 54 54.12 53.77 54.63 53.33C55.15 52.89 55.49 52.28 55.59 51.62L57.52 39.02C57.58 38.61 57.55 38.2 57.44 37.81C57.33 37.42 57.13 37.06 56.86 36.76C56.6 36.45 56.27 36.21 55.9 36.04C55.53 35.87 55.12 35.79 54.72 35.8L46.8 35.8L46.8 30.2C46.8 29.08 46.35 28.01 45.56 27.23C44.78 26.44 43.71 26 42.6 26L37 38.59L37 54" stroke="#FFEAA7" stroke-opacity="1.000000" stroke-width="3.000000" stroke-linejoin="round"/>
		</g>
	</g>
</svg>
