<svg width="40.000000" height="40.000000" viewBox="0 0 40 40" fill="none" xmlns="http://www.w3.org/2000/svg" xmlns:xlink="http://www.w3.org/1999/xlink">
	<desc>
			Created with Pixso.
	</desc>
	<defs>
		<clipPath id="clip6_5411">
			<rect rx="-0.500000" width="39.000000" height="39.000000" transform="translate(0.500000 0.500000)" fill="white" fill-opacity="0"/>
		</clipPath>
	</defs>
	<rect rx="-0.500000" width="39.000000" height="39.000000" transform="translate(0.500000 0.500000)" fill="#FFFFFF" fill-opacity="0"/>
	<g clip-path="url(#clip6_5411)">
		<path d="M28 29L28 27C28 25.93 27.57 24.92 26.82 24.17C26.07 23.42 25.06 23 24 23L16 23C14.93 23 13.92 23.42 13.17 24.17C12.42 24.92 12 25.93 12 27L12 29" stroke="#ADADAD" stroke-opacity="1.000000" stroke-width="2.000000" stroke-linejoin="round" stroke-linecap="round"/>
		<path d="M20 19C17.79 19 16 17.2 16 15C16 12.79 17.79 11 20 11C22.2 11 24 12.79 24 15C24 17.2 22.2 19 20 19Z" stroke="#ADADAD" stroke-opacity="1.000000" stroke-width="2.000000" stroke-linejoin="round"/>
	</g>
</svg>
