<svg width="40.000000" height="40.000000" viewBox="0 0 40 40" fill="none" xmlns="http://www.w3.org/2000/svg" xmlns:xlink="http://www.w3.org/1999/xlink">
	<desc>
			Created with Pixso.
	</desc>
	<defs>
		<clipPath id="clip2_5388">
			<rect rx="-0.500000" width="39.000000" height="39.000000" transform="translate(0.500000 0.500000)" fill="white" fill-opacity="0"/>
		</clipPath>
	</defs>
	<rect rx="-0.500000" width="39.000000" height="39.000000" transform="translate(0.500000 0.500000)" fill="#FFFFFF" fill-opacity="0"/>
	<g clip-path="url(#clip2_5388)">
		<path d="M28.24 17.75C29.36 18.88 30 20.4 30 22L30 29L26 29L26 22C26 21.46 25.78 20.96 25.41 20.58C25.03 20.21 24.53 20 24 20C23.46 20 22.96 20.21 22.58 20.58C22.21 20.96 22 21.46 22 22L22 29L18 29L18 22C18 20.4 18.63 18.88 19.75 17.75C20.88 16.63 22.4 16 24 16C25.59 16 27.11 16.63 28.24 17.75Z" stroke="#6C5CE7" stroke-opacity="1.000000" stroke-width="2.000000" stroke-linejoin="round"/>
		<path d="M14 17L14 29L10 29L10 17L14 17Z" stroke="#6C5CE7" stroke-opacity="1.000000" stroke-width="2.000000" stroke-linejoin="round"/>
		<path d="M12 14C10.89 14 10 13.1 10 12C10 10.89 10.89 10 12 10C13.1 10 14 10.89 14 12C14 13.1 13.1 14 12 14Z" stroke="#6C5CE7" stroke-opacity="1.000000" stroke-width="2.000000" stroke-linejoin="round"/>
	</g>
</svg>
