<svg width="40.000000" height="40.000000" viewBox="0 0 40 40" fill="none" xmlns="http://www.w3.org/2000/svg" xmlns:xlink="http://www.w3.org/1999/xlink">
	<desc>
			Created with Pixso.
	</desc>
	<defs>
		<clipPath id="clip2_5396">
			<rect rx="-0.500000" width="39.000000" height="39.000000" transform="translate(0.500000 0.500000)" fill="white" fill-opacity="0"/>
		</clipPath>
	</defs>
	<rect rx="-0.500000" width="39.000000" height="39.000000" transform="translate(0.500000 0.500000)" fill="#FFFFFF" fill-opacity="0"/>
	<g clip-path="url(#clip2_5396)">
		<path d="M27.86 12.54C27.25 11.84 26.45 11.35 25.56 11.13C24.67 10.91 23.73 10.96 22.88 11.29C22.02 11.62 21.28 12.2 20.77 12.96C20.25 13.72 19.98 14.62 20 15.54L20 16.54C18.24 16.58 16.5 16.19 14.93 15.4C13.36 14.61 12.01 13.44 11 12.01C11 12.01 7 21.01 16 25.01C13.94 26.4 11.48 27.1 9 27.01C18 32 29 27.01 29 15.51C28.99 15.23 28.97 14.95 28.92 14.68C29.94 13.67 30.66 12.4 31 11.01C30.04 11.68 28.98 12.2 27.86 12.54Z" stroke="#6C5CE7" stroke-opacity="1.000000" stroke-width="2.000000" stroke-linejoin="round"/>
	</g>
</svg>
