<svg width="88.000000" height="88.000000" viewBox="0 0 88 88" fill="none" xmlns="http://www.w3.org/2000/svg" xmlns:xlink="http://www.w3.org/1999/xlink">
	<desc>
			Created with Pixso.
	</desc>
	<defs>
		<filter id="filter_2_4708_dd" x="0.000000" y="0.000000" width="88.000000" height="88.000000" filterUnits="userSpaceOnUse" color-interpolation-filters="sRGB">
			<feFlood flood-opacity="0" result="BackgroundImageFix"/>
			<feColorMatrix in="SourceAlpha" type="matrix" values="0 0 0 0 0 0 0 0 0 0 0 0 0 0 0 0 0 0 127 0" result="hardAlpha"/>
			<feOffset dx="0" dy="4"/>
			<feGaussianBlur stdDeviation="5.33333"/>
			<feComposite in2="hardAlpha" operator="out" k2="-1" k3="1"/>
			<feColorMatrix type="matrix" values="0 0 0 0 0.14902 0 0 0 0 0.19608 0 0 0 0 0.21961 0 0 0 0.078 0"/>
			<feBlend mode="normal" in2="BackgroundImageFix" result="effect_dropShadow_1"/>
			<feColorMatrix in="SourceAlpha" type="matrix" values="0 0 0 0 0 0 0 0 0 0 0 0 0 0 0 0 0 0 127 0" result="hardAlpha"/>
			<feOffset dx="0" dy="4"/>
			<feGaussianBlur stdDeviation="2"/>
			<feComposite in2="hardAlpha" operator="out" k2="-1" k3="1"/>
			<feColorMatrix type="matrix" values="0 0 0 0 0.14902 0 0 0 0 0.19608 0 0 0 0 0.21961 0 0 0 0.16 0"/>
			<feBlend mode="normal" in2="effect_dropShadow_1" result="effect_dropShadow_2"/>
			<feBlend mode="normal" in="SourceGraphic" in2="effect_dropShadow_2" result="shape"/>
		</filter>
		<clipPath id="clip2_4708">
			<rect rx="-0.500000" width="55.000000" height="55.000000" transform="translate(16.500000 12.500000)" fill="white" fill-opacity="0"/>
		</clipPath>
	</defs>
	<g filter="url(#filter_2_4708_dd)">
		<rect rx="-0.500000" width="55.000000" height="55.000000" transform="translate(16.500000 12.500000)" fill="#FFFFFF" fill-opacity="0"/>
		<g clip-path="url(#clip2_4708)">
			<path d="M56.89 45.44C56 47.55 54.61 49.4 52.83 50.85C51.06 52.29 48.96 53.28 46.72 53.72C44.47 54.17 42.15 54.05 39.96 53.4C37.77 52.74 35.78 51.55 34.15 49.94C32.53 48.34 31.32 46.35 30.63 44.17C29.95 41.99 29.81 39.67 30.23 37.43C30.65 35.18 31.61 33.07 33.04 31.28C34.46 29.49 36.3 28.07 38.4 27.16" stroke="#FFEAA7" stroke-opacity="1.000000" stroke-width="3.000000" stroke-linejoin="round" stroke-linecap="round"/>
			<path d="M56.93 34.64C56.23 32.94 55.2 31.4 53.9 30.1C52.6 28.8 51.05 27.76 49.35 27.06C47.65 26.36 45.83 26 44 26L44 40L58 40C58 38.16 57.63 36.34 56.93 34.64Z" stroke="#FFEAA7" stroke-opacity="1.000000" stroke-width="3.000000" stroke-linejoin="round"/>
		</g>
	</g>
</svg>
